<svg xmlns="http://www.w3.org/2000/svg" xmlns:xlink="http://www.w3.org/1999/xlink" width="500" zoomAndPan="magnify" viewBox="0 0 375 374.999991" height="500" preserveAspectRatio="xMidYMid meet" version="1.0"><defs><clipPath id="77fee98862"><path d="M 18.964844 18.964844 L 356.035156 18.964844 L 356.035156 356.035156 L 18.964844 356.035156 Z M 18.964844 18.964844 " clip-rule="nonzero"/></clipPath><clipPath id="145378d0aa"><path d="M 187.5 18.964844 C 94.421875 18.964844 18.964844 94.421875 18.964844 187.5 C 18.964844 280.578125 94.421875 356.035156 187.5 356.035156 C 280.578125 356.035156 356.035156 280.578125 356.035156 187.5 C 356.035156 94.421875 280.578125 18.964844 187.5 18.964844 Z M 187.5 18.964844 " clip-rule="nonzero"/></clipPath><clipPath id="4493f0d89e"><path d="M 0.964844 0.964844 L 338.035156 0.964844 L 338.035156 338.035156 L 0.964844 338.035156 Z M 0.964844 0.964844 " clip-rule="nonzero"/></clipPath><clipPath id="45af0831d1"><path d="M 169.5 0.964844 C 76.421875 0.964844 0.964844 76.421875 0.964844 169.5 C 0.964844 262.578125 76.421875 338.035156 169.5 338.035156 C 262.578125 338.035156 338.035156 262.578125 338.035156 169.5 C 338.035156 76.421875 262.578125 0.964844 169.5 0.964844 Z M 169.5 0.964844 " clip-rule="nonzero"/></clipPath><clipPath id="03c328fa1c"><rect x="0" width="339" y="0" height="339"/></clipPath></defs><g clip-path="url(#77fee98862)"><g clip-path="url(#145378d0aa)"><g transform="matrix(1, 0, 0, 1, 18, 18)"><g clip-path="url(#03c328fa1c)"><g clip-path="url(#4493f0d89e)"><g clip-path="url(#45af0831d1)"><path fill="#ececec" d="M 0.964844 0.964844 L 338.035156 0.964844 L 338.035156 338.035156 L 0.964844 338.035156 Z M 0.964844 0.964844 " fill-opacity="1" fill-rule="nonzero"/></g></g></g></g></g></g><path fill="#00678f" d="M 65 239.765625 L 73.03125 239.765625 L 73.03125 207.90625 L 85.632812 235.609375 C 87.015625 238.933594 89.09375 240.179688 93.109375 240.179688 C 97.125 240.179688 98.925781 238.933594 100.445312 235.609375 L 112.910156 207.90625 L 112.910156 239.765625 L 120.941406 239.765625 L 120.941406 207.90625 C 120.941406 204.859375 119.695312 203.335938 117.0625 202.503906 C 110.96875 200.703125 106.816406 202.226562 105.015625 206.382812 L 92.832031 233.808594 L 80.921875 206.382812 C 79.125 202.226562 74.96875 200.703125 68.878906 202.503906 C 66.246094 203.335938 65 204.722656 65 207.90625 Z M 65 239.765625 " fill-opacity="1" fill-rule="nonzero"/><path fill="#00678f" d="M 127.585938 213.863281 L 135.617188 213.863281 L 135.617188 231.316406 C 135.617188 232.285156 135.894531 234.5 140.324219 234.640625 C 142.679688 234.640625 157.769531 234.640625 157.910156 234.640625 L 157.910156 213.726562 L 165.941406 213.726562 C 165.941406 213.726562 165.941406 242.257812 165.941406 242.394531 C 165.941406 249.460938 157.21875 250.984375 153.203125 250.984375 L 127.863281 250.984375 L 127.863281 245.582031 C 127.863281 245.582031 153.339844 245.582031 153.339844 245.582031 C 158.464844 245.027344 157.910156 242.394531 157.910156 241.566406 L 157.910156 239.488281 L 140.738281 239.488281 C 132.710938 239.488281 127.585938 235.886719 127.585938 231.871094 C 127.585938 231.453125 127.863281 214 127.585938 213.863281 Z M 127.585938 213.863281 " fill-opacity="1" fill-rule="nonzero"/><path fill="#00678f" d="M 301.21875 193.503906 C 296.234375 193.363281 292.496094 193.917969 289.171875 195.164062 C 288.203125 195.578125 286.820312 195.578125 286.679688 196.6875 C 287.234375 197.242188 287.234375 197.933594 287.648438 198.628906 C 288.34375 199.875 289.726562 201.535156 290.835938 202.367188 C 292.082031 203.335938 293.464844 204.304688 294.851562 205.277344 C 297.203125 206.800781 299.972656 207.628906 302.328125 209.152344 C 303.710938 209.984375 305.097656 211.09375 306.34375 212.0625 C 307.035156 212.617188 307.449219 213.308594 308.28125 213.726562 C 308.28125 213.726562 308.28125 213.585938 308.28125 213.585938 C 307.867188 213.03125 307.726562 212.199219 307.3125 211.648438 C 306.757812 211.09375 306.066406 210.539062 305.511719 209.847656 C 303.710938 207.492188 301.496094 205.277344 299.140625 203.613281 C 297.203125 202.226562 292.773438 200.429688 292.082031 198.074219 C 292.082031 198.074219 292.082031 198.074219 291.941406 197.933594 C 293.328125 197.796875 294.851562 197.378906 296.234375 196.964844 C 298.3125 196.410156 300.25 196.550781 302.464844 195.996094 C 303.433594 195.71875 304.402344 195.441406 305.375 195.164062 C 305.375 195.027344 305.375 194.75 305.375 194.609375 C 304.265625 193.503906 303.433594 191.980469 302.328125 191.007812 C 299.140625 188.238281 295.679688 185.605469 292.082031 183.390625 C 290.140625 182.144531 287.648438 181.3125 285.710938 180.34375 C 285.019531 179.929688 283.773438 179.789062 283.359375 179.234375 C 282.25 177.851562 281.558594 176.050781 280.863281 174.527344 C 279.066406 171.0625 277.402344 167.324219 275.742188 163.722656 C 274.632812 161.367188 273.941406 158.875 272.558594 156.660156 C 266.1875 146.132812 259.265625 139.761719 248.601562 133.527344 C 246.25 132.28125 243.617188 131.726562 240.710938 131.035156 C 239.1875 131.035156 237.664062 130.894531 236.140625 130.757812 C 235.171875 130.339844 234.203125 129.09375 233.234375 128.542969 C 229.773438 126.324219 220.632812 121.476562 218.003906 127.847656 C 216.339844 131.867188 220.496094 135.882812 221.878906 137.820312 C 222.988281 139.207031 224.234375 140.867188 225.0625 142.390625 C 225.480469 143.5 225.617188 144.609375 226.035156 145.714844 C 227.003906 148.488281 227.972656 151.394531 229.21875 154.027344 C 229.910156 155.273438 230.601562 156.660156 231.570312 157.90625 C 232.125 158.597656 232.957031 158.875 233.09375 159.984375 C 232.265625 161.230469 232.125 163.03125 231.710938 164.554688 C 229.496094 171.480469 230.324219 180.207031 233.511719 185.332031 C 234.480469 186.855469 236.832031 190.316406 240.019531 188.929688 C 242.789062 187.824219 242.234375 184.359375 242.925781 181.175781 C 243.066406 180.480469 242.925781 179.929688 243.339844 179.511719 C 243.339844 179.511719 243.339844 179.652344 243.339844 179.652344 C 244.171875 181.3125 245.003906 183.113281 245.832031 184.777344 C 247.773438 187.824219 251.09375 191.007812 253.863281 193.085938 C 255.386719 194.195312 256.496094 196.132812 258.433594 196.828125 C 258.433594 196.828125 258.433594 196.6875 258.433594 196.6875 C 258.433594 196.6875 258.433594 196.6875 258.296875 196.6875 C 257.878906 196.132812 257.328125 195.855469 256.910156 195.441406 C 255.804688 194.332031 254.558594 192.949219 253.726562 191.703125 C 251.09375 188.238281 248.878906 184.359375 246.804688 180.480469 C 245.832031 178.542969 245.003906 176.464844 244.171875 174.527344 C 243.757812 173.832031 243.757812 172.726562 243.203125 172.308594 C 242.234375 173.695312 240.847656 174.804688 240.296875 176.464844 C 239.1875 179.097656 239.050781 182.421875 238.632812 185.746094 C 238.355469 185.746094 238.496094 185.746094 238.355469 185.882812 C 236.417969 185.332031 235.726562 183.390625 234.894531 181.589844 C 233.09375 177.15625 232.679688 170.09375 234.339844 165.109375 C 234.757812 163.859375 236.695312 159.707031 235.863281 158.460938 C 235.449219 157.351562 234.203125 156.660156 233.511719 155.6875 C 232.679688 154.582031 231.847656 153.058594 231.296875 151.671875 C 229.773438 148.210938 229.078125 144.332031 227.417969 140.867188 C 226.726562 139.207031 225.339844 137.542969 224.371094 136.160156 C 223.265625 134.496094 221.878906 133.25 220.910156 131.3125 C 220.632812 130.617188 220.21875 129.511719 220.632812 128.816406 C 220.773438 128.265625 221.050781 128.125 221.464844 127.988281 C 222.296875 127.292969 224.511719 128.125 225.339844 128.542969 C 227.695312 129.511719 229.496094 130.339844 231.433594 131.589844 C 232.265625 132.140625 233.234375 133.390625 234.339844 133.664062 C 234.757812 133.664062 235.171875 133.664062 235.585938 133.664062 C 237.527344 134.082031 239.742188 133.804688 241.679688 134.359375 C 245.003906 135.464844 247.910156 136.992188 250.542969 138.652344 C 258.574219 143.777344 265.355469 151.117188 269.789062 159.84375 C 270.480469 161.230469 270.894531 162.613281 271.449219 164 C 272.695312 167.046875 274.359375 170.09375 275.605469 173.140625 C 276.851562 176.050781 278.097656 178.957031 280.035156 181.453125 C 281.003906 182.699219 284.605469 183.390625 286.402344 184.082031 C 287.648438 184.636719 289.589844 185.191406 290.695312 185.746094 C 292.773438 186.992188 294.851562 188.515625 296.925781 189.902344 C 297.894531 190.730469 301.082031 192.253906 301.21875 193.503906 Z M 301.21875 193.503906 " fill-opacity="1" fill-rule="nonzero"/><path fill="#00678f" d="M 238.21875 139.898438 C 237.109375 139.898438 236.417969 140.039062 235.726562 140.175781 C 235.726562 140.175781 235.726562 140.175781 235.726562 140.316406 C 235.726562 140.316406 235.726562 140.316406 235.863281 140.316406 C 236.417969 141.285156 237.25 141.976562 237.804688 142.808594 C 238.355469 143.777344 238.773438 144.746094 239.1875 145.714844 C 239.1875 145.714844 239.324219 145.578125 239.324219 145.578125 C 240.15625 145.023438 240.574219 143.914062 240.574219 142.53125 C 240.15625 142.113281 240.15625 141.699219 239.878906 141.285156 C 239.464844 140.589844 238.632812 140.316406 238.21875 139.898438 Z M 238.21875 139.898438 " fill-opacity="1" fill-rule="nonzero"/><path fill="#e38d1a" d="M 172.171875 239.765625 L 195.433594 239.765625 C 198.203125 239.765625 200.695312 239.210938 202.910156 238.242188 C 206.371094 236.578125 208.035156 234.5 208.035156 231.59375 L 208.035156 225.636719 C 208.035156 223.28125 206.09375 221.203125 202.355469 219.679688 C 200.417969 218.988281 197.925781 218.574219 195.433594 218.574219 L 185.742188 218.574219 C 182.417969 218.574219 180.894531 217.601562 180.480469 215.386719 C 180.480469 215.109375 180.480469 214.832031 180.480469 214.695312 L 180.480469 211.09375 C 180.480469 210.953125 180.480469 210.675781 180.480469 210.402344 C 180.894531 208.738281 181.726562 208.324219 184.632812 208.046875 C 184.910156 208.046875 185.1875 208.046875 185.324219 208.046875 L 208.308594 208.046875 L 208.308594 202.644531 L 185.742188 202.644531 C 182.417969 202.644531 180.757812 202.78125 179.234375 203.335938 C 174.523438 204.859375 172.308594 207.214844 172.308594 211.371094 L 172.308594 215.800781 C 172.308594 219.402344 176.324219 222.589844 183.25 223.28125 C 183.941406 223.28125 184.769531 223.28125 185.601562 223.28125 L 193.910156 223.28125 C 194.1875 223.28125 194.464844 223.28125 194.742188 223.28125 C 197.234375 223.558594 198.339844 223.972656 199.171875 224.945312 C 199.726562 225.5 199.726562 225.914062 199.726562 226.46875 L 199.726562 231.175781 C 199.726562 231.730469 199.308594 232.421875 198.617188 233.117188 C 197.925781 233.808594 196.679688 234.222656 195.15625 234.222656 C 194.878906 234.222656 194.601562 234.222656 194.324219 234.222656 L 172.171875 234.222656 Z M 172.171875 239.765625 " fill-opacity="1" fill-rule="nonzero"/><path fill="#e38d1a" d="M 258.296875 230.347656 C 258.296875 235.886719 262.449219 238.933594 270.757812 239.488281 C 271.589844 239.488281 272.28125 239.625 273.109375 239.625 L 294.15625 239.625 L 294.15625 234.222656 L 272.972656 234.222656 C 268.265625 234.222656 266.464844 233.117188 266.464844 230.207031 L 266.464844 202.503906 L 258.433594 202.503906 Z M 258.296875 230.347656 " fill-opacity="1" fill-rule="nonzero"/><path fill="#e38d1a" d="M 213.15625 230.621094 L 213.15625 211.507812 C 213.15625 206.660156 216.617188 203.613281 223.402344 202.78125 C 224.09375 202.78125 224.925781 202.644531 225.617188 202.644531 L 240.988281 202.644531 C 241.820312 202.644531 242.511719 202.644531 243.339844 202.78125 C 250.125 203.753906 253.449219 206.660156 253.449219 211.507812 L 253.449219 230.621094 C 253.449219 234.640625 252.066406 236.71875 248.742188 238.101562 L 256.632812 245.304688 L 247.355469 245.304688 L 240.988281 239.488281 L 234.480469 239.902344 L 225.894531 239.902344 C 224.511719 239.902344 222.847656 239.765625 221.1875 239.347656 C 215.648438 237.824219 213.15625 235.054688 213.15625 230.621094 Z M 221.878906 230.207031 C 221.878906 230.484375 222.019531 230.761719 222.019531 231.039062 C 222.433594 233.253906 224.511719 234.5 227.695312 234.5 L 235.035156 234.5 L 228.386719 228.40625 L 237.664062 228.40625 L 243.480469 233.671875 C 244.585938 233.117188 245.28125 232.148438 245.558594 231.039062 C 245.558594 230.761719 245.558594 230.484375 245.558594 230.207031 L 245.558594 211.925781 C 245.558594 211.648438 245.558594 211.371094 245.558594 211.230469 C 245.140625 209.152344 243.066406 207.90625 239.878906 207.90625 L 227.695312 207.90625 C 224.09375 207.90625 221.742188 209.429688 221.742188 211.925781 Z M 221.878906 230.207031 " fill-opacity="1" fill-rule="nonzero"/><path fill="#e38d1a" d="M 297.757812 239.765625 L 298.867188 239.765625 L 298.867188 235.195312 L 300.386719 235.195312 L 300.386719 234.222656 L 296.097656 234.222656 L 296.097656 235.195312 L 297.757812 235.195312 Z M 306.757812 239.765625 L 307.867188 239.765625 L 307.867188 234.363281 L 306.203125 234.363281 L 304.820312 238.101562 L 303.296875 234.363281 L 301.636719 234.363281 L 301.636719 239.765625 L 302.742188 239.765625 L 302.742188 235.609375 L 304.265625 239.765625 L 305.097656 239.765625 L 306.621094 235.609375 Z M 306.757812 239.765625 " fill-opacity="1" fill-rule="nonzero"/></svg>