<svg id="Capa_1" enable-background="new 0 0 512 512" height="300" viewBox="0 0 512 512" width="300" xmlns="http://www.w3.org/2000/svg" version="1.1" xmlns:xlink="http://www.w3.org/1999/xlink" xmlns:svgjs="http://svgjs.dev/svgjs"><circle r="256" cx="256" cy="256" shape="true" transform="matrix(1,0,0,1,0,0)" fill-opacity="1" fill="#ffffff"/><g width="100%" height="100%" transform="matrix(0.65,0,0,0.65,89.6,89.59982643127441)"><g><path d="m187.432 271c-29.538 0-53.568 24.03-53.568 53.568v133.863c0 29.538 24.03 53.568 53.568 53.568 29.538.001 53.568-24.029 53.568-53.567v-133.864c0-29.538-24.03-53.568-53.568-53.568z" fill="#ff4340" fill-opacity="1" data-original-color="#ff4340ff" stroke="none" stroke-opacity="1"/><path d="m103.863 271h-51.86c-28.596 0-51.86 23.265-51.86 51.86 0 28.596 23.265 51.86 51.86 51.86s51.86-23.265 51.86-51.86z" fill="#ff4340" fill-opacity="1" data-original-color="#ff4340ff" stroke="none" stroke-opacity="1"/><path d="m0 187.432c0 29.538 24.03 53.568 53.568 53.568h133.863c29.539 0 53.569-24.03 53.569-53.568s-24.03-53.568-53.568-53.568h-133.864c-29.538-.001-53.568 24.03-53.568 53.568z" fill="#36c6ff" fill-opacity="1" data-original-color="#36c6ffff" stroke="none" stroke-opacity="1"/><path d="m189.14 103.863h51.86v-51.86c0-28.596-23.265-51.86-51.86-51.86-28.596 0-51.86 23.265-51.86 51.86s23.264 51.86 51.86 51.86z" fill="#36c6ff" fill-opacity="1" data-original-color="#36c6ffff" stroke="none" stroke-opacity="1"/><path d="m324.568 241c29.538 0 53.568-24.03 53.568-53.568v-133.864c.001-29.538-24.03-53.568-53.568-53.568s-53.568 24.03-53.568 53.568v133.863c0 29.539 24.03 53.569 53.568 53.569z" fill="#0dc46e" fill-opacity="1" data-original-color="#0dc46eff" stroke="none" stroke-opacity="1"/><path d="m408.137 241h51.86c28.596 0 51.86-23.265 51.86-51.86 0-28.596-23.265-51.86-51.86-51.86s-51.86 23.265-51.86 51.86z" fill="#0dc46e" fill-opacity="1" data-original-color="#0dc46eff" stroke="none" stroke-opacity="1"/><g fill="#fdcb02"><path d="m512 324.568c0-29.538-24.03-53.568-53.568-53.568h-133.864c-29.538 0-53.568 24.03-53.568 53.568s24.03 53.568 53.568 53.568h133.863c29.539.001 53.569-24.03 53.569-53.568z" fill="#fdcb02" fill-opacity="1" data-original-color="#fdcb02ff" stroke="none" stroke-opacity="1"/><path d="m322.86 408.137h-51.86v51.86c0 28.596 23.265 51.86 51.86 51.86 28.596 0 51.86-23.265 51.86-51.86s-23.264-51.86-51.86-51.86z" fill="#fdcb02" fill-opacity="1" data-original-color="#fdcb02ff" stroke="none" stroke-opacity="1"/></g></g></g></svg>