<svg xmlns="http://www.w3.org/2000/svg" xmlns:xlink="http://www.w3.org/1999/xlink" width="500" zoomAndPan="magnify" viewBox="0 0 375 374.999991" height="500" preserveAspectRatio="xMidYMid meet" version="1.0"><defs><clipPath id="213d070abb"><path d="M 18.964844 18.964844 L 356.035156 18.964844 L 356.035156 356.035156 L 18.964844 356.035156 Z M 18.964844 18.964844 " clip-rule="nonzero"/></clipPath><clipPath id="aaf470ae6e"><path d="M 187.5 18.964844 C 94.421875 18.964844 18.964844 94.421875 18.964844 187.5 C 18.964844 280.578125 94.421875 356.035156 187.5 356.035156 C 280.578125 356.035156 356.035156 280.578125 356.035156 187.5 C 356.035156 94.421875 280.578125 18.964844 187.5 18.964844 Z M 187.5 18.964844 " clip-rule="nonzero"/></clipPath><clipPath id="69986e463a"><path d="M 0.964844 0.964844 L 338.035156 0.964844 L 338.035156 338.035156 L 0.964844 338.035156 Z M 0.964844 0.964844 " clip-rule="nonzero"/></clipPath><clipPath id="911af458f6"><path d="M 169.5 0.964844 C 76.421875 0.964844 0.964844 76.421875 0.964844 169.5 C 0.964844 262.578125 76.421875 338.035156 169.5 338.035156 C 262.578125 338.035156 338.035156 262.578125 338.035156 169.5 C 338.035156 76.421875 262.578125 0.964844 169.5 0.964844 Z M 169.5 0.964844 " clip-rule="nonzero"/></clipPath><clipPath id="67707275da"><rect x="0" width="339" y="0" height="339"/></clipPath></defs><g clip-path="url(#213d070abb)"><g clip-path="url(#aaf470ae6e)"><g transform="matrix(1, 0, 0, 1, 18, 18)"><g clip-path="url(#67707275da)"><g clip-path="url(#69986e463a)"><g clip-path="url(#911af458f6)"><path fill="#f37c23" d="M 0.964844 0.964844 L 338.035156 0.964844 L 338.035156 338.035156 L 0.964844 338.035156 Z M 0.964844 0.964844 " fill-opacity="1" fill-rule="nonzero"/></g></g></g></g></g></g><path fill="#ffffff" d="M 134.882812 167.757812 C 134.863281 170.195312 135.234375 172.570312 135.996094 174.886719 C 136.664062 176.898438 137.53125 178.820312 138.589844 180.65625 C 138.925781 181.214844 139.105469 181.816406 139.125 182.46875 C 139.085938 182.96875 138.933594 183.429688 138.664062 183.855469 C 138.394531 184.277344 138.039062 184.613281 137.601562 184.859375 L 132.535156 188.234375 C 131.898438 188.664062 131.199219 188.898438 130.433594 188.9375 C 129.480469 188.902344 128.683594 188.53125 128.042969 187.824219 C 126.941406 186.683594 125.980469 185.433594 125.160156 184.074219 C 124.375 182.714844 123.550781 181.148438 122.726562 179.378906 C 121.304688 181.15625 119.699219 182.75 117.90625 184.160156 C 116.113281 185.566406 114.1875 186.75 112.121094 187.710938 C 110.054688 188.671875 107.90625 189.386719 105.675781 189.851562 C 103.445312 190.316406 101.191406 190.519531 98.914062 190.460938 C 97.457031 190.539062 96.007812 190.472656 94.566406 190.261719 C 93.125 190.050781 91.714844 189.699219 90.34375 189.207031 C 88.972656 188.71875 87.660156 188.09375 86.414062 187.339844 C 85.164062 186.589844 84.003906 185.71875 82.925781 184.734375 C 81.929688 183.71875 81.046875 182.613281 80.277344 181.417969 C 79.507812 180.21875 78.871094 178.957031 78.363281 177.625 C 77.855469 176.296875 77.492188 174.929688 77.265625 173.523438 C 77.042969 172.117188 76.964844 170.707031 77.035156 169.285156 C 76.980469 167.722656 77.097656 166.175781 77.394531 164.644531 C 77.6875 163.113281 78.152344 161.632812 78.785156 160.203125 C 79.417969 158.777344 80.199219 157.4375 81.136719 156.1875 C 82.070312 154.9375 83.136719 153.8125 84.328125 152.804688 C 85.714844 151.710938 87.191406 150.75 88.753906 149.921875 C 90.316406 149.097656 91.941406 148.417969 93.625 147.886719 C 95.3125 147.355469 97.03125 146.980469 98.785156 146.761719 C 100.539062 146.542969 102.300781 146.480469 104.0625 146.582031 C 106.894531 146.589844 109.710938 146.796875 112.511719 147.199219 C 115.605469 147.628906 118.667969 148.222656 121.699219 148.972656 L 121.699219 143.078125 C 121.941406 140.773438 121.738281 138.507812 121.085938 136.285156 C 120.4375 134.058594 119.390625 132.039062 117.949219 130.226562 C 116.085938 128.800781 114.027344 127.765625 111.773438 127.125 C 109.515625 126.484375 107.222656 126.28125 104.886719 126.515625 C 101.976562 126.523438 99.105469 126.867188 96.277344 127.546875 C 93.324219 128.257812 90.441406 129.175781 87.625 130.308594 C 86.714844 130.714844 85.78125 131.058594 84.824219 131.335938 C 84.410156 131.394531 84 131.394531 83.585938 131.335938 C 82.433594 131.335938 81.898438 130.511719 81.898438 128.824219 L 81.898438 124.703125 C 81.882812 123.863281 82.0625 123.066406 82.433594 122.3125 C 83.050781 121.566406 83.804688 121.003906 84.699219 120.625 C 87.9375 119.058594 91.304688 117.835938 94.792969 116.957031 C 98.847656 115.921875 102.96875 115.414062 107.152344 115.433594 C 116.683594 115.433594 123.675781 117.605469 128.125 121.945312 C 129.316406 123.277344 130.363281 124.71875 131.261719 126.265625 C 132.160156 127.8125 132.894531 129.433594 133.464844 131.132812 C 134.035156 132.828125 134.429688 134.5625 134.648438 136.339844 C 134.863281 138.117188 134.902344 139.894531 134.757812 141.679688 Z M 102.375 180.121094 C 105.203125 180.074219 107.949219 179.582031 110.613281 178.636719 C 113.589844 177.613281 116.101562 175.910156 118.15625 173.527344 C 119.46875 172.039062 120.390625 170.335938 120.914062 168.417969 C 121.449219 166.128906 121.699219 163.808594 121.65625 161.457031 L 121.65625 158.078125 C 119.347656 157.542969 116.878906 157.089844 114.324219 156.757812 C 111.832031 156.433594 109.335938 156.269531 106.824219 156.265625 C 104.703125 156.097656 102.621094 156.296875 100.566406 156.855469 C 98.515625 157.414062 96.621094 158.300781 94.875 159.519531 C 94.199219 160.078125 93.59375 160.703125 93.0625 161.402344 C 92.53125 162.097656 92.085938 162.847656 91.730469 163.648438 C 91.371094 164.449219 91.113281 165.28125 90.945312 166.140625 C 90.78125 167.003906 90.71875 167.871094 90.757812 168.75 C 90.644531 170.304688 90.839844 171.816406 91.347656 173.292969 C 91.855469 174.765625 92.632812 176.082031 93.679688 177.234375 C 94.882812 178.265625 96.238281 179.015625 97.75 179.488281 C 99.257812 179.960938 100.800781 180.117188 102.375 179.953125 Z M 166.730469 188.8125 C 165.609375 188.910156 164.582031 188.648438 163.640625 188.03125 C 162.773438 187.148438 162.210938 186.105469 161.953125 184.898438 L 143.164062 123.097656 C 142.816406 122.050781 142.585938 120.980469 142.464844 119.882812 C 142.316406 119.582031 142.265625 119.261719 142.304688 118.929688 C 142.34375 118.597656 142.46875 118.300781 142.679688 118.039062 C 142.890625 117.777344 143.15625 117.597656 143.476562 117.488281 C 143.792969 117.382812 144.117188 117.371094 144.441406 117.453125 L 152.476562 117.453125 C 153.613281 117.339844 154.65625 117.601562 155.605469 118.234375 C 156.441406 119.125 156.976562 120.167969 157.214844 121.367188 L 170.6875 174.394531 L 183.003906 121.574219 C 183.179688 120.355469 183.699219 119.3125 184.570312 118.441406 C 185.523438 117.722656 186.59375 117.394531 187.785156 117.453125 L 194.210938 117.453125 C 195.386719 117.34375 196.472656 117.605469 197.46875 118.234375 C 198.320312 119.109375 198.832031 120.152344 198.992188 121.367188 L 211.640625 174.929688 L 225.523438 121.574219 C 225.761719 120.375 226.296875 119.332031 227.132812 118.441406 C 228.050781 117.722656 229.097656 117.394531 230.261719 117.453125 L 237.71875 117.453125 C 237.992188 117.417969 238.253906 117.445312 238.511719 117.53125 C 238.769531 117.621094 238.992188 117.761719 239.183594 117.957031 C 239.375 118.152344 239.511719 118.378906 239.59375 118.636719 C 239.675781 118.898438 239.699219 119.160156 239.65625 119.429688 C 239.695312 119.84375 239.695312 120.253906 239.65625 120.667969 C 239.515625 121.339844 239.324219 122 239.082031 122.644531 L 219.632812 184.734375 C 219.371094 185.941406 218.808594 186.984375 217.945312 187.867188 C 217.003906 188.484375 215.972656 188.746094 214.855469 188.648438 L 207.972656 188.648438 C 206.808594 188.742188 205.738281 188.464844 204.757812 187.824219 C 203.902344 186.898438 203.382812 185.816406 203.195312 184.570312 L 190.832031 132.984375 L 178.472656 184.570312 C 178.285156 185.816406 177.761719 186.898438 176.90625 187.824219 C 175.929688 188.464844 174.859375 188.742188 173.695312 188.648438 Z M 269.734375 190.914062 C 265.558594 190.925781 261.4375 190.460938 257.375 189.511719 C 254.15625 188.847656 251.078125 187.777344 248.144531 186.300781 C 247.082031 185.804688 246.257812 185.046875 245.671875 184.035156 C 245.347656 183.328125 245.183594 182.585938 245.179688 181.808594 L 245.179688 177.6875 C 245.179688 176 245.796875 175.175781 246.992188 175.175781 C 247.503906 175.171875 248 175.265625 248.472656 175.464844 C 249.164062 175.699219 249.835938 175.976562 250.492188 176.289062 C 253.339844 177.550781 256.292969 178.484375 259.351562 179.089844 C 262.488281 179.746094 265.664062 180.074219 268.867188 180.078125 C 270.914062 180.195312 272.933594 180.023438 274.929688 179.570312 C 276.925781 179.113281 278.820312 178.390625 280.609375 177.402344 C 281.261719 177.011719 281.851562 176.542969 282.378906 175.996094 C 282.90625 175.449219 283.347656 174.84375 283.710938 174.175781 C 284.074219 173.507812 284.34375 172.804688 284.515625 172.066406 C 284.6875 171.328125 284.761719 170.578125 284.730469 169.820312 C 284.765625 168.777344 284.589844 167.765625 284.210938 166.792969 C 283.832031 165.820312 283.277344 164.960938 282.546875 164.214844 C 280.113281 162.21875 277.367188 160.84375 274.308594 160.097656 L 262.648438 156.46875 C 260.132812 155.804688 257.777344 154.769531 255.589844 153.363281 C 253.402344 151.953125 251.480469 150.242188 249.832031 148.230469 C 248.515625 146.578125 247.503906 144.757812 246.796875 142.765625 C 246.089844 140.777344 245.730469 138.722656 245.714844 136.609375 C 245.644531 133.441406 246.355469 130.460938 247.855469 127.671875 C 249.332031 125.082031 251.253906 122.886719 253.625 121.078125 C 256.121094 119.207031 258.867188 117.832031 261.863281 116.957031 C 265.289062 115.917969 268.792969 115.410156 272.371094 115.433594 C 274.179688 115.4375 275.976562 115.5625 277.769531 115.804688 C 279.515625 116.011719 281.246094 116.316406 282.960938 116.710938 C 284.566406 117.082031 286.089844 117.492188 287.492188 117.945312 C 288.648438 118.335938 289.777344 118.804688 290.871094 119.347656 C 291.792969 119.855469 292.589844 120.515625 293.257812 121.324219 C 293.773438 122.144531 294.007812 123.039062 293.960938 124.003906 L 293.960938 127.792969 C 293.960938 129.441406 293.34375 130.308594 292.148438 130.308594 C 291.050781 130.183594 290.019531 129.855469 289.058594 129.320312 C 284.128906 127.179688 278.980469 126.148438 273.605469 126.230469 C 269.84375 126.019531 266.289062 126.773438 262.9375 128.496094 C 262.324219 128.855469 261.773438 129.292969 261.28125 129.808594 C 260.789062 130.324219 260.378906 130.898438 260.050781 131.527344 C 259.71875 132.15625 259.480469 132.820312 259.332031 133.515625 C 259.1875 134.210938 259.136719 134.914062 259.1875 135.621094 C 259.160156 136.691406 259.351562 137.722656 259.761719 138.710938 C 260.171875 139.703125 260.761719 140.566406 261.535156 141.308594 C 264.171875 143.414062 267.125 144.882812 270.394531 145.714844 L 281.765625 149.382812 C 284.164062 150.019531 286.417969 150.992188 288.523438 152.304688 C 290.632812 153.617188 292.5 155.210938 294.125 157.089844 C 295.351562 158.695312 296.28125 160.460938 296.917969 162.382812 C 297.550781 164.300781 297.859375 166.273438 297.832031 168.296875 C 297.878906 171.578125 297.179688 174.699219 295.730469 177.648438 C 294.3125 180.433594 292.378906 182.796875 289.921875 184.734375 C 287.242188 186.796875 284.273438 188.292969 281.023438 189.226562 C 277.320312 190.28125 273.542969 190.789062 269.691406 190.75 Z M 269.734375 190.914062 " fill-opacity="1" fill-rule="nonzero"/><path fill="#ffffff" d="M 284.855469 229.726562 C 258.445312 249.296875 220.210938 259.554688 187.25 259.554688 C 181.808594 259.589844 176.378906 259.371094 170.960938 258.902344 C 165.539062 258.433594 160.152344 257.71875 154.800781 256.75 C 149.445312 255.785156 144.148438 254.574219 138.90625 253.117188 C 133.664062 251.660156 128.5 249.964844 123.417969 248.03125 C 118.332031 246.097656 113.347656 243.933594 108.460938 241.542969 C 103.578125 239.148438 98.8125 236.53125 94.167969 233.699219 C 89.527344 230.863281 85.023438 227.820312 80.664062 224.570312 C 76.300781 221.320312 72.097656 217.875 68.054688 214.234375 C 65.582031 212.007812 67.765625 208.960938 70.730469 210.691406 C 79.789062 215.871094 89.140625 220.441406 98.792969 224.398438 C 108.445312 228.359375 118.316406 231.671875 128.398438 234.34375 C 138.484375 237.015625 148.699219 239.019531 159.046875 240.355469 C 169.394531 241.691406 179.78125 242.351562 190.214844 242.332031 C 205.820312 242.222656 221.265625 240.585938 236.546875 237.421875 C 251.828125 234.261719 266.65625 229.636719 281.023438 223.546875 C 285.472656 221.652344 289.222656 226.511719 284.855469 229.726562 Z M 284.855469 229.726562 " fill-opacity="1" fill-rule="evenodd"/><path fill="#ffffff" d="M 295.8125 217.199219 C 292.4375 212.875 273.523438 215.140625 264.996094 216.171875 C 262.441406 216.460938 262.027344 214.234375 264.335938 212.585938 C 279.457031 201.996094 304.21875 205.046875 307.101562 208.464844 C 309.988281 211.886719 306.320312 236.855469 292.1875 248.71875 C 290.003906 250.53125 288.070312 249.542969 288.890625 247.152344 C 292.066406 239.324219 299.191406 221.527344 295.8125 217.199219 Z M 295.8125 217.199219 " fill-opacity="1" fill-rule="evenodd"/></svg>