<svg xmlns="http://www.w3.org/2000/svg" xmlns:xlink="http://www.w3.org/1999/xlink" width="500" zoomAndPan="magnify" viewBox="0 0 375 374.999991" height="500" preserveAspectRatio="xMidYMid meet" version="1.0"><defs><clipPath id="20534a123e"><path d="M 18.964844 18.964844 L 356.035156 18.964844 L 356.035156 356.035156 L 18.964844 356.035156 Z M 18.964844 18.964844 " clip-rule="nonzero"/></clipPath><clipPath id="37fdc5510b"><path d="M 187.5 18.964844 C 94.421875 18.964844 18.964844 94.421875 18.964844 187.5 C 18.964844 280.578125 94.421875 356.035156 187.5 356.035156 C 280.578125 356.035156 356.035156 280.578125 356.035156 187.5 C 356.035156 94.421875 280.578125 18.964844 187.5 18.964844 Z M 187.5 18.964844 " clip-rule="nonzero"/></clipPath><clipPath id="1231d16e62"><path d="M 0.964844 0.964844 L 338.035156 0.964844 L 338.035156 338.035156 L 0.964844 338.035156 Z M 0.964844 0.964844 " clip-rule="nonzero"/></clipPath><clipPath id="da65febdd9"><path d="M 169.5 0.964844 C 76.421875 0.964844 0.964844 76.421875 0.964844 169.5 C 0.964844 262.578125 76.421875 338.035156 169.5 338.035156 C 262.578125 338.035156 338.035156 262.578125 338.035156 169.5 C 338.035156 76.421875 262.578125 0.964844 169.5 0.964844 Z M 169.5 0.964844 " clip-rule="nonzero"/></clipPath><clipPath id="c850621116"><rect x="0" width="339" y="0" height="339"/></clipPath><clipPath id="b1f05cad12"><path d="M 75.566406 96 L 299.066406 96 L 299.066406 279 L 75.566406 279 Z M 75.566406 96 " clip-rule="nonzero"/></clipPath></defs><g clip-path="url(#20534a123e)"><g clip-path="url(#37fdc5510b)"><g transform="matrix(1, 0, 0, 1, 18, 18)"><g clip-path="url(#c850621116)"><g clip-path="url(#1231d16e62)"><g clip-path="url(#da65febdd9)"><path fill="#ffffff" d="M 0.964844 0.964844 L 338.035156 0.964844 L 338.035156 338.035156 L 0.964844 338.035156 Z M 0.964844 0.964844 " fill-opacity="1" fill-rule="nonzero"/></g></g></g></g></g></g><g clip-path="url(#b1f05cad12)"><path fill="#000000" d="M 254.789062 123.898438 C 267.09375 136.886719 272.261719 154.632812 274.445312 179.5 C 280.230469 179.5 285.617188 180.785156 289.257812 185.734375 L 296.066406 194.957031 C 298.015625 197.617188 299.066406 200.78125 299.066406 204.082031 L 299.066406 229.128906 C 299.054688 232.363281 297.457031 235.511719 294.851562 237.421875 C 264.050781 259.972656 226.03125 278.113281 187.316406 278.113281 C 144.484375 278.113281 101.59375 253.4375 79.78125 237.421875 C 77.175781 235.511719 75.566406 232.363281 75.566406 229.128906 L 75.566406 204.082031 C 75.566406 200.78125 76.617188 197.601562 78.554688 194.941406 L 85.363281 185.734375 C 89.003906 180.796875 94.421875 179.5 100.191406 179.5 C 102.371094 154.632812 107.53125 136.886719 119.847656 123.898438 C 143.078125 99.289062 173.839844 96.574219 186.921875 96.519531 L 187.316406 96.519531 C 200.167969 96.519531 231.324219 99.03125 254.789062 123.898438 Z M 187.332031 165.257812 C 184.671875 165.257812 181.617188 165.410156 178.367188 165.738281 C 177.222656 170.007812 175.53125 173.867188 173.050781 176.324219 C 163.28125 186.105469 151.480469 187.617188 145.179688 187.617188 C 139.230469 187.617188 133.011719 186.375 127.9375 183.171875 C 123.136719 184.753906 118.523438 187.019531 118.210938 192.691406 C 117.707031 203.414062 117.664062 214.121094 117.609375 224.84375 C 117.597656 230.21875 117.570312 235.609375 117.488281 240.984375 C 117.515625 244.105469 119.398438 247.011719 122.234375 248.308594 C 145.355469 258.839844 167.210938 264.144531 187.332031 264.144531 C 207.425781 264.144531 229.277344 258.839844 252.386719 248.308594 C 255.222656 247.011719 257.105469 244.105469 257.132812 240.984375 C 257.40625 224.898438 257.1875 208.761719 256.425781 192.691406 L 256.4375 192.691406 C 256.136719 186.992188 251.5 184.753906 246.683594 183.171875 C 241.597656 186.363281 235.402344 187.617188 229.457031 187.617188 C 223.152344 187.617188 211.367188 186.105469 201.585938 176.324219 C 199.105469 173.867188 197.414062 170.007812 196.265625 165.738281 C 193.304688 165.4375 190.320312 165.273438 187.332031 165.257812 Z M 163.8125 203.621094 C 168.832031 203.621094 172.898438 207.683594 172.898438 212.703125 L 172.898438 229.457031 C 172.898438 234.460938 168.832031 238.542969 163.8125 238.542969 C 158.792969 238.542969 154.730469 234.460938 154.730469 229.457031 L 154.730469 212.703125 C 154.730469 207.683594 158.792969 203.621094 163.8125 203.621094 Z M 210.371094 203.621094 C 215.390625 203.621094 219.457031 207.683594 219.457031 212.703125 L 219.457031 229.457031 C 219.457031 234.460938 215.390625 238.542969 210.371094 238.542969 C 205.351562 238.542969 201.285156 234.460938 201.285156 229.457031 L 201.285156 212.703125 C 201.285156 207.683594 205.351562 203.621094 210.371094 203.621094 Z M 146.667969 121.238281 C 136.886719 122.222656 128.644531 125.441406 124.457031 129.902344 C 115.375 139.820312 117.335938 164.972656 122.507812 170.28125 C 126.273438 174.042969 133.394531 176.570312 141.085938 176.570312 C 146.953125 176.570312 158.125 175.300781 167.347656 165.941406 C 171.398438 162.039062 173.910156 152.257812 173.621094 142.34375 C 173.347656 134.375 171.113281 127.8125 167.757812 125.019531 C 164.128906 121.796875 155.886719 120.40625 146.667969 121.238281 Z M 206.878906 125.019531 C 203.523438 127.8125 201.285156 134.375 201.015625 142.34375 C 200.726562 152.257812 203.238281 162.039062 207.289062 165.941406 C 216.511719 175.300781 227.683594 176.570312 233.546875 176.570312 C 241.242188 176.570312 248.363281 174.042969 252.128906 170.28125 C 257.296875 164.972656 259.261719 139.820312 250.175781 129.902344 C 245.988281 125.441406 237.75 122.222656 227.96875 121.238281 C 218.746094 120.40625 210.507812 121.796875 206.878906 125.019531 Z M 187.316406 145.410156 C 185.082031 145.410156 182.433594 145.546875 179.5 145.835938 C 179.773438 147.363281 179.910156 149.039062 180.0625 150.855469 C 180.0625 152.125 180.0625 153.378906 179.910156 154.769531 C 182.707031 154.496094 185.082031 154.496094 187.316406 154.496094 C 189.554688 154.496094 191.929688 154.496094 194.726562 154.769531 C 194.574219 153.378906 194.574219 152.125 194.574219 150.855469 C 194.726562 149.039062 194.863281 147.363281 195.132812 145.835938 C 192.203125 145.546875 189.554688 145.410156 187.316406 145.410156 Z M 187.316406 145.410156 " fill-opacity="1" fill-rule="nonzero"/></g></svg>