<svg xmlns="http://www.w3.org/2000/svg" xmlns:xlink="http://www.w3.org/1999/xlink" width="500" zoomAndPan="magnify" viewBox="0 0 375 374.999991" height="500" preserveAspectRatio="xMidYMid meet" version="1.0"><defs><clipPath id="6cb9447ded"><path d="M 18.964844 18.964844 L 356.035156 18.964844 L 356.035156 356.035156 L 18.964844 356.035156 Z M 18.964844 18.964844 " clip-rule="nonzero"/></clipPath><clipPath id="09d8fad363"><path d="M 187.5 18.964844 C 94.421875 18.964844 18.964844 94.421875 18.964844 187.5 C 18.964844 280.578125 94.421875 356.035156 187.5 356.035156 C 280.578125 356.035156 356.035156 280.578125 356.035156 187.5 C 356.035156 94.421875 280.578125 18.964844 187.5 18.964844 Z M 187.5 18.964844 " clip-rule="nonzero"/></clipPath><clipPath id="3f8a1e68f6"><path d="M 0.964844 0.964844 L 338.035156 0.964844 L 338.035156 338.035156 L 0.964844 338.035156 Z M 0.964844 0.964844 " clip-rule="nonzero"/></clipPath><clipPath id="323ae22a5c"><path d="M 169.5 0.964844 C 76.421875 0.964844 0.964844 76.421875 0.964844 169.5 C 0.964844 262.578125 76.421875 338.035156 169.5 338.035156 C 262.578125 338.035156 338.035156 262.578125 338.035156 169.5 C 338.035156 76.421875 262.578125 0.964844 169.5 0.964844 Z M 169.5 0.964844 " clip-rule="nonzero"/></clipPath><clipPath id="684ac68eb5"><rect x="0" width="339" y="0" height="339"/></clipPath><clipPath id="236dc35a74"><path d="M 69.136719 69.820312 L 305.832031 69.820312 L 305.832031 304.40625 L 69.136719 304.40625 Z M 69.136719 69.820312 " clip-rule="nonzero"/></clipPath></defs><g clip-path="url(#6cb9447ded)"><g clip-path="url(#09d8fad363)"><g transform="matrix(1, 0, 0, 1, 18, 18)"><g clip-path="url(#684ac68eb5)"><g clip-path="url(#3f8a1e68f6)"><g clip-path="url(#323ae22a5c)"><path fill="#ffffff" d="M 0.964844 0.964844 L 338.035156 0.964844 L 338.035156 338.035156 L 0.964844 338.035156 Z M 0.964844 0.964844 " fill-opacity="1" fill-rule="nonzero"/></g></g></g></g></g></g><g clip-path="url(#236dc35a74)"><path fill="#000000" d="M 159.921875 155.210938 L 159.921875 132.925781 C 159.921875 131.046875 160.625 129.640625 162.265625 128.703125 L 207.074219 102.898438 C 213.171875 99.378906 220.445312 97.738281 227.949219 97.738281 C 256.101562 97.738281 273.929688 119.554688 273.929688 142.777344 C 273.929688 144.417969 273.929688 146.296875 273.695312 148.171875 L 227.246094 120.960938 C 224.433594 119.320312 221.617188 119.320312 218.800781 120.960938 Z M 264.546875 242.007812 L 264.546875 188.753906 C 264.546875 185.46875 263.136719 183.125 260.324219 181.484375 L 201.441406 147.234375 L 220.679688 136.207031 C 222.320312 135.269531 223.726562 135.269531 225.371094 136.207031 L 270.175781 162.011719 C 283.078125 169.519531 291.757812 185.46875 291.757812 200.953125 C 291.757812 218.78125 281.203125 235.203125 264.546875 242.003906 Z M 146.078125 195.089844 L 126.84375 183.832031 C 125.203125 182.894531 124.5 181.484375 124.5 179.609375 L 124.5 128 C 124.5 102.898438 143.734375 83.898438 169.773438 83.898438 C 179.628906 83.898438 188.773438 87.183594 196.519531 93.046875 L 150.304688 119.789062 C 147.492188 121.429688 146.082031 123.777344 146.082031 127.0625 L 146.082031 195.09375 Z M 187.484375 219.015625 L 159.921875 203.535156 L 159.921875 170.695312 L 187.484375 155.210938 L 215.046875 170.695312 L 215.046875 203.535156 Z M 205.195312 290.332031 C 195.34375 290.332031 186.195312 287.046875 178.453125 281.183594 L 224.664062 254.4375 C 227.480469 252.796875 228.886719 250.453125 228.886719 247.167969 L 228.886719 179.136719 L 248.359375 190.398438 C 250 191.332031 250.703125 192.742188 250.703125 194.621094 L 250.703125 246.226562 C 250.703125 271.328125 231.234375 290.332031 205.195312 290.332031 Z M 149.597656 238.019531 L 104.792969 212.214844 C 91.886719 204.707031 83.210938 188.757812 83.210938 173.273438 C 83.210938 155.210938 94 139.027344 110.65625 132.222656 L 110.65625 185.707031 C 110.65625 188.992188 112.0625 191.339844 114.878906 192.980469 L 173.527344 226.992188 L 154.289062 238.019531 C 152.648438 238.957031 151.238281 238.957031 149.597656 238.019531 Z M 147.019531 276.492188 C 120.511719 276.492188 101.039062 256.550781 101.039062 231.921875 C 101.039062 230.042969 101.273438 228.167969 101.507812 226.289062 L 147.722656 253.03125 C 150.535156 254.675781 153.351562 254.675781 156.167969 253.03125 L 215.046875 219.019531 L 215.046875 241.304688 C 215.046875 243.183594 214.34375 244.589844 212.703125 245.527344 L 167.894531 271.332031 C 161.796875 274.851562 154.523438 276.492188 147.015625 276.492188 Z M 205.195312 304.40625 C 233.582031 304.40625 257.273438 284.234375 262.671875 257.488281 C 288.945312 250.683594 305.832031 226.054688 305.832031 200.953125 C 305.832031 184.53125 298.796875 168.582031 286.128906 157.085938 C 287.300781 152.160156 288.007812 147.234375 288.007812 142.308594 C 288.007812 108.765625 260.792969 83.660156 229.359375 83.660156 C 223.027344 83.660156 216.925781 84.597656 210.828125 86.710938 C 200.269531 76.390625 185.726562 69.820312 169.773438 69.820312 C 141.390625 69.820312 117.695312 89.996094 112.300781 116.738281 C 86.027344 123.542969 69.136719 148.171875 69.136719 173.273438 C 69.136719 189.695312 76.171875 205.644531 88.839844 217.140625 C 87.667969 222.066406 86.964844 226.992188 86.964844 231.917969 C 86.964844 265.464844 114.175781 290.566406 145.609375 290.566406 C 151.945312 290.566406 158.042969 289.628906 164.144531 287.515625 C 174.699219 297.835938 189.242188 304.40625 205.195312 304.40625 Z M 205.195312 304.40625 " fill-opacity="1" fill-rule="nonzero"/></g></svg>