<svg xmlns="http://www.w3.org/2000/svg" xmlns:xlink="http://www.w3.org/1999/xlink" xmlns:svgjs="http://svgjs.dev/svgjs" height="300" viewBox="0 0 32 32" width="300"><g width="100%" height="100%" transform="matrix(1,0,0,1,0,0)"><g id="coding"><path d="m27 1h-22c-2.2060547 0-4 1.7939453-4 4v2h30v-2c0-2.2060547-1.7939453-4-4-4zm-6 4c-.5527344 0-1-.4472656-1-1s.4472656-1 1-1 1 .4472656 1 1-.4472656 1-1 1zm3 0c-.5527344 0-1-.4472656-1-1s.4472656-1 1-1 1 .4472656 1 1-.4472656 1-1 1zm3 0c-.5527344 0-1-.4472656-1-1s.4472656-1 1-1 1 .4472656 1 1-.4472656 1-1 1zm-26 4v18c0 2.2060547 1.7939453 4 4 4h22c2.2060547 0 4-1.7939453 4-4v-18zm9.7070313 14.2929688c.390625.390625.390625 1.0234375 0 1.4140625-.1953125.1953125-.4511719.2929687-.7070313.2929687s-.5117188-.0976563-.7070313-.2929688l-4-4c-.390625-.390625-.390625-1.0234375 0-1.4140625l4-4c.390625-.390625 1.0234375-.390625 1.4140625 0s.390625 1.0234375 0 1.4140625l-3.2929687 3.2929688zm8.1875-6.8457032-4 8c-.1757813.350586-.5283204.5527344-.8955079.5527344-.1503906 0-.3027344-.0341797-.4462891-.1054688-.4941406-.2470703-.6943359-.8476563-.4472656-1.3417969l4-8c.2480469-.4941406.8476563-.6914063 1.3417969-.4472656.4941407.2470704.694336.8476563.4472657 1.3417969zm7.8125 4.2597657-4 4c-.1953125.1953125-.4511719.2929687-.7070313.2929687s-.5117188-.0976563-.7070313-.2929688c-.390625-.390625-.390625-1.0234375 0-1.4140625l3.2929688-3.2929687-3.2929688-3.2929688c-.390625-.390625-.390625-1.0234375 0-1.4140625s1.0234375-.390625 1.4140625 0l4 4c.3906251.3906251.3906251 1.0234376.0000001 1.4140626z" fill="#ffd700" fill-opacity="1" data-original-color="#000000ff" stroke="none" stroke-opacity="1"></path></g></g></svg>