<svg xmlns="http://www.w3.org/2000/svg" xmlns:xlink="http://www.w3.org/1999/xlink" width="500" zoomAndPan="magnify" viewBox="0 0 375 374.999991" height="500" preserveAspectRatio="xMidYMid meet" version="1.0"><defs><clipPath id="e472ee1260"><path d="M 18.964844 18.964844 L 356.035156 18.964844 L 356.035156 356.035156 L 18.964844 356.035156 Z M 18.964844 18.964844 " clip-rule="nonzero"/></clipPath><clipPath id="c19df91dd2"><path d="M 187.5 18.964844 C 94.421875 18.964844 18.964844 94.421875 18.964844 187.5 C 18.964844 280.578125 94.421875 356.035156 187.5 356.035156 C 280.578125 356.035156 356.035156 280.578125 356.035156 187.5 C 356.035156 94.421875 280.578125 18.964844 187.5 18.964844 Z M 187.5 18.964844 " clip-rule="nonzero"/></clipPath><clipPath id="92520dc0dd"><path d="M 0.964844 0.964844 L 338.035156 0.964844 L 338.035156 338.035156 L 0.964844 338.035156 Z M 0.964844 0.964844 " clip-rule="nonzero"/></clipPath><clipPath id="ac0d237b9c"><path d="M 169.5 0.964844 C 76.421875 0.964844 0.964844 76.421875 0.964844 169.5 C 0.964844 262.578125 76.421875 338.035156 169.5 338.035156 C 262.578125 338.035156 338.035156 262.578125 338.035156 169.5 C 338.035156 76.421875 262.578125 0.964844 169.5 0.964844 Z M 169.5 0.964844 " clip-rule="nonzero"/></clipPath><clipPath id="aa7e8f4070"><rect x="0" width="339" y="0" height="339"/></clipPath><clipPath id="ccab2a6b07"><path d="M 292 168 L 318.75 168 L 318.75 211 L 292 211 Z M 292 168 " clip-rule="nonzero"/></clipPath><clipPath id="cb8ae3d795"><path d="M 231 151.941406 L 246 151.941406 L 246 166 L 231 166 Z M 231 151.941406 " clip-rule="nonzero"/></clipPath><clipPath id="222cf81393"><path d="M 56.25 200 L 99 200 L 99 211 L 56.25 211 Z M 56.25 200 " clip-rule="nonzero"/></clipPath></defs><g clip-path="url(#e472ee1260)"><g clip-path="url(#c19df91dd2)"><g transform="matrix(1, 0, 0, 1, 18, 18)"><g clip-path="url(#aa7e8f4070)"><g clip-path="url(#92520dc0dd)"><g clip-path="url(#ac0d237b9c)"><path fill="#ff4f00" d="M 0.964844 0.964844 L 338.035156 0.964844 L 338.035156 338.035156 L 0.964844 338.035156 Z M 0.964844 0.964844 " fill-opacity="1" fill-rule="nonzero"/></g></g></g></g></g></g><path fill="#ffffff" d="M 118.175781 200.488281 L 118.140625 200.371094 L 141.382812 179.089844 L 141.382812 168.835938 L 104.089844 168.835938 L 104.089844 179.089844 L 126.367188 179.089844 L 126.402344 179.1875 L 103.386719 200.488281 L 103.386719 210.742188 L 141.757812 210.742188 L 141.757812 200.488281 Z M 118.175781 200.488281 " fill-opacity="1" fill-rule="nonzero"/><path fill="#ffffff" d="M 164.648438 167.859375 C 160.347656 167.859375 156.839844 168.511719 154.132812 169.808594 C 151.609375 170.9375 149.480469 172.800781 148.027344 175.15625 C 146.640625 177.523438 145.765625 180.160156 145.46875 182.890625 L 156.785156 184.480469 C 157.191406 182.070312 158.011719 180.363281 159.238281 179.355469 C 160.636719 178.300781 162.355469 177.769531 164.101562 177.851562 C 166.398438 177.851562 168.066406 178.464844 169.101562 179.691406 C 170.125 180.921875 170.648438 182.621094 170.648438 184.863281 L 170.648438 185.980469 L 159.769531 185.980469 C 154.230469 185.980469 150.25 187.207031 147.832031 189.664062 C 145.414062 192.117188 144.207031 195.359375 144.210938 199.386719 C 144.210938 203.515625 145.417969 206.585938 147.832031 208.597656 C 150.246094 210.613281 153.285156 211.613281 156.945312 211.601562 C 161.484375 211.601562 164.972656 210.039062 167.417969 206.914062 C 168.859375 204.996094 169.890625 202.800781 170.445312 200.464844 L 170.855469 200.464844 L 172.414062 210.714844 L 182.667969 210.714844 L 182.667969 184.75 C 182.667969 179.386719 181.253906 175.230469 178.425781 172.28125 C 175.597656 169.335938 171.003906 167.859375 164.648438 167.859375 Z M 168.234375 199.867188 C 166.609375 201.222656 164.476562 201.898438 161.824219 201.898438 C 159.640625 201.898438 158.121094 201.515625 157.269531 200.75 C 156.855469 200.390625 156.523438 199.941406 156.300781 199.4375 C 156.082031 198.933594 155.972656 198.386719 155.984375 197.835938 C 155.960938 197.316406 156.042969 196.796875 156.226562 196.3125 C 156.410156 195.824219 156.6875 195.378906 157.046875 195.003906 C 157.4375 194.640625 157.894531 194.359375 158.398438 194.175781 C 158.898438 193.992188 159.433594 193.914062 159.964844 193.941406 L 170.664062 193.941406 L 170.664062 194.648438 C 170.6875 195.648438 170.480469 196.636719 170.058594 197.542969 C 169.636719 198.445312 169.011719 199.242188 168.234375 199.867188 Z M 168.234375 199.867188 " fill-opacity="1" fill-rule="nonzero"/><path fill="#ffffff" d="M 244.664062 168.835938 L 232.550781 168.835938 L 232.550781 210.746094 L 244.664062 210.746094 Z M 244.664062 168.835938 " fill-opacity="1" fill-rule="nonzero"/><g clip-path="url(#ccab2a6b07)"><path fill="#ffffff" d="M 316.179688 168.835938 C 312.757812 168.835938 310.0625 170.042969 308.089844 172.460938 C 306.671875 174.195312 305.597656 176.757812 304.859375 180.152344 L 304.503906 180.152344 L 302.917969 168.835938 L 292.574219 168.835938 L 292.574219 210.742188 L 304.6875 210.742188 L 304.6875 189.253906 C 304.6875 186.542969 305.324219 184.464844 306.589844 183.019531 C 307.859375 181.574219 310.203125 180.851562 313.613281 180.851562 L 318.214844 180.851562 L 318.214844 168.835938 Z M 316.179688 168.835938 " fill-opacity="1" fill-rule="nonzero"/></g><path fill="#ffffff" d="M 280.566406 170.207031 C 277.738281 168.523438 274.167969 167.6875 269.863281 167.691406 C 263.085938 167.691406 257.78125 169.621094 253.949219 173.480469 C 250.117188 177.339844 248.203125 182.660156 248.203125 189.441406 C 248.105469 193.542969 249 197.605469 250.8125 201.285156 C 252.46875 204.566406 255.054688 207.289062 258.242188 209.113281 C 261.449219 210.96875 265.265625 211.898438 269.691406 211.902344 C 273.519531 211.902344 276.714844 211.3125 279.28125 210.132812 C 281.695312 209.074219 283.796875 207.414062 285.382812 205.3125 C 286.898438 203.25 288.019531 200.929688 288.699219 198.460938 L 278.261719 195.539062 C 277.824219 197.144531 276.976562 198.605469 275.808594 199.789062 C 274.628906 200.96875 272.652344 201.558594 269.882812 201.558594 C 266.585938 201.558594 264.132812 200.613281 262.515625 198.726562 C 261.34375 197.363281 260.605469 195.417969 260.28125 192.894531 L 288.859375 192.894531 C 288.976562 191.714844 289.039062 190.726562 289.039062 189.929688 L 289.039062 187.320312 C 289.105469 183.8125 288.382812 180.335938 286.917969 177.152344 C 285.550781 174.25 283.335938 171.828125 280.566406 170.207031 Z M 269.511719 177.679688 C 274.425781 177.679688 277.210938 180.097656 277.871094 184.929688 L 260.496094 184.929688 C 260.769531 183.316406 261.4375 181.796875 262.441406 180.503906 C 264.03125 178.617188 266.390625 177.675781 269.511719 177.679688 Z M 269.511719 177.679688 " fill-opacity="1" fill-rule="nonzero"/><g clip-path="url(#cb8ae3d795)"><path fill="#ffffff" d="M 238.738281 151.945312 C 237.824219 151.917969 236.917969 152.070312 236.066406 152.394531 C 235.214844 152.722656 234.4375 153.21875 233.78125 153.851562 C 233.136719 154.488281 232.628906 155.257812 232.292969 156.101562 C 231.957031 156.949219 231.800781 157.851562 231.835938 158.761719 C 231.804688 159.675781 231.960938 160.589844 232.292969 161.441406 C 232.628906 162.292969 233.136719 163.066406 233.785156 163.710938 C 234.433594 164.359375 235.207031 164.867188 236.058594 165.199219 C 236.910156 165.535156 237.824219 165.691406 238.738281 165.65625 C 239.644531 165.691406 240.550781 165.535156 241.398438 165.199219 C 242.242188 164.867188 243.007812 164.359375 243.648438 163.710938 C 244.28125 163.054688 244.777344 162.28125 245.101562 161.429688 C 245.429688 160.578125 245.578125 159.671875 245.546875 158.761719 C 245.585938 157.855469 245.441406 156.953125 245.113281 156.109375 C 244.785156 155.265625 244.285156 154.496094 243.648438 153.855469 C 243.007812 153.214844 242.238281 152.714844 241.394531 152.386719 C 240.550781 152.058594 239.648438 151.914062 238.742188 151.953125 Z M 238.738281 151.945312 " fill-opacity="1" fill-rule="nonzero"/></g><path fill="#ffffff" d="M 213.714844 167.691406 C 209.589844 167.691406 206.277344 168.984375 203.769531 171.578125 C 201.914062 173.496094 200.554688 176.363281 199.6875 180.171875 L 199.300781 180.171875 L 197.714844 168.855469 L 187.371094 168.855469 L 187.371094 222.789062 L 199.484375 222.789062 L 199.484375 200.574219 L 199.925781 200.574219 C 200.296875 202.054688 200.816406 203.496094 201.472656 204.871094 C 202.5 207.113281 204.179688 208.996094 206.292969 210.261719 C 208.484375 211.460938 210.957031 212.054688 213.453125 211.988281 C 218.523438 211.988281 222.386719 210.011719 225.039062 206.0625 C 227.691406 202.113281 229.015625 196.601562 229.015625 189.527344 C 229.015625 182.699219 227.734375 177.351562 225.167969 173.484375 C 222.601562 169.621094 218.785156 167.691406 213.714844 167.691406 Z M 214.945312 198.058594 C 213.53125 200.105469 211.320312 201.128906 208.3125 201.128906 C 207.074219 201.183594 205.835938 200.945312 204.707031 200.429688 C 203.578125 199.914062 202.585938 199.136719 201.816406 198.160156 C 200.25 196.191406 199.46875 193.496094 199.472656 190.074219 L 199.472656 189.277344 C 199.472656 185.800781 200.253906 183.140625 201.816406 181.296875 C 203.382812 179.449219 205.546875 178.535156 208.3125 178.558594 C 211.375 178.558594 213.601562 179.53125 214.988281 181.472656 C 216.375 183.417969 217.070312 186.128906 217.070312 189.609375 C 217.078125 193.207031 216.371094 196.023438 214.957031 198.058594 Z M 214.945312 198.058594 " fill-opacity="1" fill-rule="nonzero"/><g clip-path="url(#222cf81393)"><path fill="#000000" d="M 98.695312 200.488281 L 56.785156 200.488281 L 56.785156 210.753906 L 98.695312 210.753906 Z M 98.695312 200.488281 " fill-opacity="1" fill-rule="nonzero"/></g></svg>